<svg viewBox="0 0 64 64" fill="none" xmlns="http://www.w3.org/2000/svg"
     role="img" aria-label="Agricoltura: Dal Modello Industriale al Modello Territoriale">

  <!-- Wheat stalk -->
  <!-- Main stem -->
  <path d="M32 58 Q30 44 32 28 Q34 14 32 8"
        stroke="#277a3f" stroke-width="3" stroke-linecap="round" fill="none"/>
  <!-- Grain 1 (top) -->
  <ellipse cx="32" cy="13" rx="4" ry="7" fill="#277a3f"/>
  <!-- Left grains -->
  <path d="M32 20 Q24 16 22 10 Q28 12 32 20Z" fill="#277a3f"/>
  <path d="M32 28 Q22 22 20 16 Q27 19 32 28Z" fill="#277a3f" opacity=".75"/>
  <!-- Right grains -->
  <path d="M32 20 Q40 16 42 10 Q36 12 32 20Z" fill="#277a3f"/>
  <path d="M32 28 Q42 22 44 16 Q37 19 32 28Z" fill="#277a3f" opacity=".75"/>
  <!-- Lower grains -->
  <path d="M32 36 Q22 30 21 23 Q28 27 32 36Z" fill="#277a3f" opacity=".6"/>
  <path d="M32 36 Q42 30 43 23 Q36 27 32 36Z" fill="#277a3f" opacity=".6"/>
  <!-- Leaf -->
  <path d="M32 44 Q18 40 16 30 Q24 38 32 44Z" fill="#277a3f" opacity=".8"/>
  <!-- Ground -->
  <line x1="24" y1="58" x2="40" y2="58" stroke="#277a3f" stroke-width="2" stroke-linecap="round"/>

</svg>